<svg xmlns="http://www.w3.org/2000/svg" width="19" height="19" viewBox="0 0 21 21">
  <defs>
    <style>
      .cls-1 {
        fill-rule: evenodd;
      }
    </style>
  </defs>
  <path id="Forma_1" data-name="Forma 1" class="cls-1" d="M1279.17,97.805c-1.88-1.641-3.63-3.956-3.63-9.736a6.04,6.04,0,1,0-12.08,0c0,5.785-1.75,8.1-3.64,9.737a2.419,2.419,0,0,0-.82,1.812,0.692,0.692,0,0,0,.69.691h6.52a3.357,3.357,0,0,0,6.58,0h6.52a0.692,0.692,0,0,0,.69-0.691A2.38,2.38,0,0,0,1279.17,97.805Zm-9.67,3.814a1.993,1.993,0,0,1-1.87-1.309h3.74A1.993,1.993,0,0,1,1269.5,101.619Zm-8.86-2.691a0.811,0.811,0,0,0,.08-0.078c2.88-2.5,4.11-5.724,4.11-10.781a4.67,4.67,0,1,1,9.34,0c0,5.053,1.22,8.277,4.11,10.781a0.8,0.8,0,0,0,.08.077h-17.72Z" transform="translate(-1259 -82)"/>
</svg>
