<svg xmlns="http://www.w3.org/2000/svg" width="22" height="19" viewBox="0 0 25 22">
  <defs>
    <style>
      .cls-1 {
        fill-rule: evenodd;
      }
    </style>
  </defs>
  <path class="cls-1" d="M1349.2,119.408h-11.62l11.1-11.1a2.255,2.255,0,0,0,0-3.188l-5.46-5.458a2.247,2.247,0,0,0-3.18,0l-14.05,14.053a2.255,2.255,0,0,0,0,3.188l2.51,2.509h-2.7a0.8,0.8,0,1,0,0,1.592h23.4A0.8,0.8,0,1,0,1349.2,119.408Zm-8.04-18.625a0.668,0.668,0,0,1,.94,0l5.45,5.458a0.65,0.65,0,0,1,0,.938l-9.14,9.149-6.39-6.395Zm-5.83,18.625h-4.58l-3.63-3.635a0.659,0.659,0,0,1,0-.936l3.77-3.779,6.39,6.4Z" transform="translate(-1325 -99)"/>
</svg>
