<svg xmlns="http://www.w3.org/2000/svg" width="18" height="20" viewBox="0 0 22 25">
  <defs>
    <style>
      .cls-1 {
        fill-rule: evenodd;
      }
    </style>
  </defs>
  <path id="Forma_1" data-name="Forma 1" class="cls-1" d="M1376,90.421a0.867,0.867,0,0,1-.86-0.88V78.88a0.86,0.86,0,1,1,1.72,0v10.66A0.867,0.867,0,0,1,1376,90.421ZM1376,103a11.245,11.245,0,0,1-3.1-21.985,0.856,0.856,0,0,1,1.07.6,0.882,0.882,0,0,1-.58,1.093,9.485,9.485,0,0,0-6.66,9.076,9.272,9.272,0,1,0,18.54,0,9.485,9.485,0,0,0-6.66-9.076,0.881,0.881,0,0,1-.58-1.093,0.856,0.856,0,0,1,1.07-.6A11.108,11.108,0,0,1,1384.76,85,11.264,11.264,0,0,1,1376,103Z" transform="translate(-1365 -78)"/>
</svg>
