<?xml version="1.0" encoding="iso-8859-1"?>
<!-- Generator: Adobe Illustrator 19.0.0, SVG Export Plug-In . SVG Version: 6.00 Build 0)  -->
<svg version="1.1" id="Layer_1" xmlns="http://www.w3.org/2000/svg" xmlns:xlink="http://www.w3.org/1999/xlink" x="0px" y="0px"
	 viewBox="0 0 368 368" style="enable-background:new 0 0 368 368;" xml:space="preserve">
<g>
	<g>
		<path d="M184,0C82.4,0,0,82.4,0,184s82.4,184,184,184s184-82.4,184-184S285.6,0,184,0z M141.2,21.6c-9.6,8.8-18.8,20.4-27.6,33.6
			C100,76,78,118.8,76,176H16C19.6,101.6,71.6,40,141.2,21.6z M16.4,192h60c2.4,66.4,33.2,124.8,65.6,154.8
			C72,328.4,19.6,266.4,16.4,192z M176,350.4C144.4,340,95.2,273.2,92,192h84V350.4z M176,176H92c3.2-81.2,52.4-148,84-158.4V176z
			 M351.6,176H292c-2.4-66.4-33.2-124.8-65.6-154.8C296,39.6,348.4,101.6,351.6,176z M192,17.6C223.6,28,272.8,94.8,276,176h-84
			V17.6z M192,350.4V192h84C272.8,273.2,223.6,340,192,350.4z M226,346.8c32.4-30,63.6-88.4,66-154.8h60
			C348.4,266.4,296,328.4,226,346.8z"/>
	</g>
</g>
<g>
</g>
<g>
</g>
<g>
</g>
<g>
</g>
<g>
</g>
<g>
</g>
<g>
</g>
<g>
</g>
<g>
</g>
<g>
</g>
<g>
</g>
<g>
</g>
<g>
</g>
<g>
</g>
<g>
</g>
</svg>
