<svg xmlns="http://www.w3.org/2000/svg" width="35" height="41" viewBox="0 0 35 41">
  <defs>
    <style>
      .cls-1 {
        fill: #af81c9;
        fill-rule: evenodd;
      }
    </style>
  </defs>
  <path class="cls-1" d="M746.872,220.733h-2.329a1.543,1.543,0,0,1,0-3.085h4.1a1.023,1.023,0,0,0,0-2.046H746.72v-1.423a1.017,1.017,0,1,0-2.033,0V215.6h-0.144a3.589,3.589,0,0,0,0,7.177h2.329a1.543,1.543,0,0,1,0,3.086H742.7a1.023,1.023,0,0,0,0,2.046h2v1.457a1.017,1.017,0,1,0,2.033,0v-1.457h0.2A3.589,3.589,0,0,0,746.872,220.733Zm14.112-2.318a29.331,29.331,0,0,0-4.405-7.109,32.952,32.952,0,0,0-5.641-5.4l4.32-8.063a1.013,1.013,0,0,0-.186-1.21A5.05,5.05,0,0,0,751.446,195a8.482,8.482,0,0,0-3.286.869,6.188,6.188,0,0,1-2.067.623,1.276,1.276,0,0,1-.483-0.086,14.984,14.984,0,0,0-5.065-1.2,6.85,6.85,0,0,0-5.1,2.4,1.034,1.034,0,0,0-.118,1.279l4.659,7.083a33.423,33.423,0,0,0-5.565,5.336,29.58,29.58,0,0,0-4.405,7.109A24.309,24.309,0,0,0,728,228.064,7.924,7.924,0,0,0,735.886,236h19.228A7.924,7.924,0,0,0,763,228.064,24.309,24.309,0,0,0,760.984,218.415ZM737.5,198.461a4.416,4.416,0,0,1,3.05-1.228,13.114,13.114,0,0,1,4.362,1.083,3.432,3.432,0,0,0,1.177.2,7.474,7.474,0,0,0,2.846-.775,6.832,6.832,0,0,1,2.508-.716,2.681,2.681,0,0,1,1.635.562l-4.066,7.6h-7.082Zm17.619,35.493H735.886a5.878,5.878,0,0,1-5.853-5.89,23.919,23.919,0,0,1,5.9-15.4,31.18,31.18,0,0,1,5.751-5.421H749.3a30.558,30.558,0,0,1,5.751,5.421,23.86,23.86,0,0,1,5.9,15.4A5.853,5.853,0,0,1,755.114,233.954Z" transform="translate(-728 -195)"/>
</svg>
