<svg xmlns="http://www.w3.org/2000/svg" width="44" height="42" viewBox="0 0 44 42">
  <defs>
    <style>
      .cls-1 {
        fill: #54d1f1;
        fill-rule: evenodd;
      }
    </style>
  </defs>
  <path id="Forma_1" data-name="Forma 1" class="cls-1" d="M39.067,20.093A4.945,4.945,0,0,1,34.8,17.653a4.95,4.95,0,0,1-8.533,0,4.949,4.949,0,0,1-8.532,0,4.952,4.952,0,0,1-8.536,0A4.939,4.939,0,0,1,0,15.2V8.676A0.678,0.678,0,0,1,.045,8.435L3.2,0.417A0.667,0.667,0,0,1,3.817,0H40.181A0.667,0.667,0,0,1,40.8.417l3.151,8.018A0.653,0.653,0,0,1,44,8.676V15.2A4.921,4.921,0,0,1,39.067,20.093ZM42.668,8.8l-2.94-7.48H4.273L1.333,8.8v6.4a3.6,3.6,0,0,0,7.2,0,0.667,0.667,0,0,1,1.333,0,3.6,3.6,0,0,0,7.2,0,0.667,0.667,0,0,1,1.333,0,3.6,3.6,0,0,0,7.2,0,0.667,0.667,0,0,1,1.333,0,3.6,3.6,0,0,0,7.2,0,0.667,0.667,0,0,1,1.335,0,3.6,3.6,0,0,0,7.2,0V8.8ZM22.985,34.081a0.665,0.665,0,0,1-.667-0.662v-8.7a0.665,0.665,0,0,1,.667-0.662H34.407a0.665,0.665,0,0,1,.667.662v8.7a0.665,0.665,0,0,1-.667.662H22.985Zm10.753-8.7H23.651v7.38H33.739v-7.38ZM3.916,24.508a0.665,0.665,0,0,1,.667.662V39.122a1.561,1.561,0,0,0,1.565,1.554H8.925V24.713a0.665,0.665,0,0,1,.667-0.662h9.651a0.665,0.665,0,0,1,.667.662V40.677H37.853a1.562,1.562,0,0,0,1.567-1.554V25.17a0.667,0.667,0,0,1,1.333,0V39.122A2.894,2.894,0,0,1,37.853,42H6.148a2.892,2.892,0,0,1-2.9-2.879V25.17A0.665,0.665,0,0,1,3.916,24.508Zm6.343,15.9h8.317V25.376H10.259V40.411Z"/>
</svg>
