<svg xmlns="http://www.w3.org/2000/svg" width="44" height="40" viewBox="0 0 44 40">
  <defs>
    <style>
      .cls-1 {
        fill: #f2ca85;
        fill-rule: evenodd;
      }
    </style>
  </defs>
  <path id="Forma_1" data-name="Forma 1" class="cls-1" d="M1062.34,226.192l-7-3.474a1.912,1.912,0,0,1-1.07-1.72v-2.459c0.16-.2.34-0.435,0.52-0.691a16.584,16.584,0,0,0,2.17-4.218,2.9,2.9,0,0,0,1.71-2.63v-2.909a2.888,2.888,0,0,0-.74-1.909v-3.869a6.458,6.458,0,0,0-1.53-4.745c-1.51-1.7-3.95-2.568-7.27-2.568s-5.76.864-7.26,2.567a6.345,6.345,0,0,0-1.52,3.5,9.538,9.538,0,0,0-4.42-.971c-7.62,0-8.06,6.44-8.06,6.545v3.33a2.511,2.511,0,0,0-.74,1.695v2.512a2.609,2.609,0,0,0,.96,2.011,11.157,11.157,0,0,0,2.68,4.57v2a1.588,1.588,0,0,1-.86,1.392l-4.88,3.035a5.754,5.754,0,0,0-3.03,5.061V235h44v-2.941A6.514,6.514,0,0,0,1062.34,226.192Zm-30.07,5.726v1.627h-8.8v-1.307a4.313,4.313,0,0,1,2.3-3.806l4.88-3.034a3,3,0,0,0,1.58-2.648v-2.612l-0.23-.216a9.625,9.625,0,0,1-2.54-4.331l-0.07-.288-0.25-.16a1.149,1.149,0,0,1-.54-0.97v-2.512a1.275,1.275,0,0,1,.49-0.854l0.24-.216v-3.913c0.02-.209.4-5.133,6.6-5.133a7.65,7.65,0,0,1,4.4,1.2v3.441a2.878,2.878,0,0,0-.73,1.909V211a3.485,3.485,0,0,0,.07.649,2.15,2.15,0,0,0,.09.243,2.392,2.392,0,0,0,.13.364v0a2.9,2.9,0,0,0,.81,1c0,0.014.01,0.026,0.01,0.039,0.04,0.167.09,0.333,0.14,0.495l0.06,0.189,0.03,0.1c0.03,0.078.05,0.156,0.08,0.233,0.04,0.127.09,0.259,0.14,0.4a1.306,1.306,0,0,1,.07.173c0.06,0.152.12,0.3,0.19,0.444,0.01,0.035.03,0.073,0.04,0.107l0.04,0.091c0.02,0.043.04,0.08,0.06,0.122,0.07,0.156.14,0.306,0.22,0.452,0.01,0.023.02,0.048,0.03,0.072,0.05,0.091.09,0.176,0.14,0.264,0.08,0.149.16,0.291,0.23,0.427,0.04,0.067.08,0.132,0.12,0.2,0.1,0.179.2,0.343,0.3,0.5,0.02,0.033.04,0.067,0.06,0.1,0.18,0.273.33,0.494,0.46,0.666a0.646,0.646,0,0,1,.09.124c0.02,0.021.04,0.051,0.06,0.07v2.407a1.924,1.924,0,0,1-1.01,1.687l-1.94,1.05-0.34-.03-0.14.287-4.13,2.232A6.56,6.56,0,0,0,1032.27,231.918Zm32.26,1.627h-30.8v-1.627a5.093,5.093,0,0,1,2.69-4.483l6.54-3.539a3.379,3.379,0,0,0,1.77-2.965v-2.922h0l-0.14-.169-0.03-.033a1.877,1.877,0,0,0-.12-0.152c0-.006-0.01-0.012-0.01-0.018-0.04-.05-0.09-0.11-0.14-0.182v0c-0.11-.151-0.25-0.346-0.4-0.582,0,0-.01-0.011-0.01-0.016-0.07-.111-0.15-0.233-0.23-0.361,0-.01-0.01-0.019-0.01-0.03-0.17-.275-0.34-0.587-0.52-0.933h0c-0.09-.185-0.19-0.38-0.28-0.583h0a0.326,0.326,0,0,0-.04-0.085h0c-0.04-.091-0.08-0.186-0.12-0.284-0.01-.036-0.03-0.073-0.04-0.109-0.04-.095-0.08-0.191-0.12-0.3-0.07-.2-0.15-0.405-0.21-0.618l-0.04-.129c-0.01-.015-0.01-0.029-0.02-0.045-0.07-.229-0.13-0.464-0.19-0.706l-0.06-.288-0.25-.16a1.437,1.437,0,0,1-.68-1.219v-2.909a1.418,1.418,0,0,1,.49-1.073l0.24-.216v-4.787l-0.02-.015a5.051,5.051,0,0,1,1.19-3.474c1.22-1.375,3.29-2.072,6.16-2.072s4.94,0.692,6.15,2.057a5.084,5.084,0,0,1,1.19,3.666V206.8l0.24,0.217a1.414,1.414,0,0,1,.49,1.072V211a1.45,1.45,0,0,1-1.04,1.381l-0.37.111-0.12.36a15.116,15.116,0,0,1-2.07,4.155,8.781,8.781,0,0,1-.62.785l-0.18.206v3a3.356,3.356,0,0,0,1.88,3.021l7.01,3.473a5.078,5.078,0,0,1,2.84,4.567v1.486Z" transform="translate(-1022 -195)"/>
</svg>
