<svg xmlns="http://www.w3.org/2000/svg" width="18" height="18" viewBox="0 0 18 18">
  <defs>
    <style>
      .cls-1 {
        fill-rule: evenodd;
      }
    </style>
  </defs>
  <path id="Forma_1" data-name="Forma 1" class="cls-1" d="M17.83,5.99L17.8,5.881a0.156,0.156,0,0,1-.015-0.046L15.837,0.418A0.638,0.638,0,0,0,15.234,0H2.75a0.653,0.653,0,0,0-.6.418L0.216,5.8C0.2,5.835.2,5.866,0.185,5.9l-0.062.186a0.459,0.459,0,0,0-.031.155A2.445,2.445,0,0,0,0,6.887,2.7,2.7,0,0,0,1.792,9.441v7.924A0.627,0.627,0,0,0,2.426,18h13.4a0.627,0.627,0,0,0,.633-0.635V9.333A2.739,2.739,0,0,0,18,6.887,2.673,2.673,0,0,0,17.923,6.3,0.907,0.907,0,0,0,17.83,5.99ZM15.173,16.731H3.059V9.58c0.031,0,.077-0.015.108-0.015a2.72,2.72,0,0,0,1.653-.944A2.687,2.687,0,0,0,6.906,9.6a2.737,2.737,0,0,0,2.086-.975,2.687,2.687,0,0,0,2.086.975,2.737,2.737,0,0,0,2.086-.975,2.607,2.607,0,0,0,1.391.882c0.015,0,.031.015,0.046,0.015,0.062,0.015.124,0.031,0.2,0.046,0.031,0,.077.015,0.108,0.015,0.046,0,.108.015,0.154,0.015,0.031,0,.077.015,0.108,0.015v7.12ZM15.667,8.28h0c-0.077.015-.139,0.031-0.2,0.046a0.88,0.88,0,0,1-.2.015,1.7,1.7,0,0,1-.278-0.031C14.91,8.3,14.833,8.265,14.771,8.249a0.031,0.031,0,0,1-.031-0.015A1.485,1.485,0,0,1,13.828,7V6.887a0.633,0.633,0,1,0-1.267,0,0.2,0.2,0,0,1-.016.093V7a1.465,1.465,0,0,1-.912,1.238,0.031,0.031,0,0,0-.031.015,1.285,1.285,0,0,1-.232.062,1.265,1.265,0,0,1-.556,0C10.738,8.3,10.661,8.265,10.6,8.249a0.031,0.031,0,0,1-.031-0.015A1.485,1.485,0,0,1,9.657,7V6.965c0-.031-0.015-0.046-0.015-0.077a0.633,0.633,0,1,0-1.267,0,0.2,0.2,0,0,1-.015.093V7a1.465,1.465,0,0,1-.912,1.238,0.031,0.031,0,0,0-.031.015,1.285,1.285,0,0,1-.232.062,1.7,1.7,0,0,1-.278.031,1.7,1.7,0,0,1-.278-0.031C6.551,8.3,6.474,8.265,6.4,8.249a0.031,0.031,0,0,1-.031-0.015A1.485,1.485,0,0,1,5.454,7V6.887a0.633,0.633,0,1,0-1.267,0,0.2,0.2,0,0,1-.015.093V7A1.465,1.465,0,0,1,3.26,8.234a0.031,0.031,0,0,0-.031.015,1.136,1.136,0,0,1-.216.062,1.7,1.7,0,0,1-.278.031c-0.046,0-.108-0.015-0.155-0.015a0.117,0.117,0,0,1-.062-0.015H2.472A1.463,1.463,0,0,1,1.267,6.872a1.345,1.345,0,0,1,.062-0.4c0-.015.015-0.046,0.015-0.062L3.2,1.254H14.786l1.808,5.03a0.156,0.156,0,0,1,.015.046L16.64,6.423c0,0.015.015,0.046,0.015,0.062a1.347,1.347,0,0,1,.062.4A1.477,1.477,0,0,1,15.667,8.28Z"/>
</svg>
